<svg fill="none" xmlns="http://www.w3.org/2000/svg" viewBox="0 0 16 16">
  <g clip-path="url(#MUWDSUEX4lKWa)">
    <path d="M13.476 0H1.744C.782 0 0 .782 0 1.744v11.732c0 .962.782 1.744 1.744 1.744h11.732c.962 0 1.744-.782 1.744-1.744V1.744C15.22.782 14.438 0 13.476 0z" fill="#C33C2F"/>
    <path d="M10.413 9.516a.634.634 0 11-.897.896L7.611 8.508l-1.906 1.905a.633.633 0 01-.897 0 .634.634 0 010-.896L6.714 7.61 4.808 5.704a.634.634 0 11.897-.896l1.906 1.905 1.905-1.905a.634.634 0 11.897.896L8.507 7.61l1.906 1.906z" fill="#FAFAFA"/>
  </g>
  <defs>
    <clipPath id="MUWDSUEX4lKWa">
      <path fill="#fff" d="M0 0h15.22v15.22H0z"/>
    </clipPath>
  </defs>
</svg>
