<svg fill="none" xmlns="http://www.w3.org/2000/svg" viewBox="0 0 25 25">
  <g clip-path="url(#4mTQfAkLGJ8va)">
    <path d="M22.135 0H2.865A2.867 2.867 0 000 2.865v19.27A2.867 2.867 0 002.865 25h19.27A2.867 2.867 0 0025 22.135V2.865A2.867 2.867 0 0022.135 0z" fill="#C33C2F"/>
    <path d="M17.103 15.63a1.04 1.04 0 11-1.473 1.473l-3.13-3.13-3.13 3.13a1.039 1.039 0 01-1.473 0 1.04 1.04 0 010-1.473l3.13-3.13-3.13-3.13A1.04 1.04 0 119.37 7.897l3.13 3.13 3.13-3.13a1.04 1.04 0 111.473 1.473l-3.13 3.13 3.13 3.13z" fill="#FAFAFA"/>
  </g>
  <defs>
    <clipPath id="4mTQfAkLGJ8va">
      <path fill="#fff" d="M0 0h25v25H0z"/>
    </clipPath>
  </defs>
</svg>
