<svg fill="none" xmlns="http://www.w3.org/2000/svg" viewBox="0 0 74 74">
  <circle cx="36.795" cy="36.795" r="36.795" fill="#fff"/>
  <path d="M55.107 36.077c0-.016-.002-.03-.003-.046a18.329 18.329 0 00-5.514-12.515 18.332 18.332 0 00-12.912-5.277A18.318 18.318 0 0023.64 23.64a18.318 18.318 0 00-5.4 13.038 4.557 4.557 0 004.551 4.552 4.557 4.557 0 004.552-4.552c0-7.061 5.745-12.806 12.807-12.806 7.001 0 12.625 5.48 12.802 12.475v.01c.003.107.004.215.004.321 0 8.976-7.302 16.278-16.278 16.278a1.08 1.08 0 100 2.16c4.925 0 9.556-1.917 13.038-5.4a18.318 18.318 0 005.391-13.64z" fill="#541211"/>
</svg>
