<svg fill="none" xmlns="http://www.w3.org/2000/svg" viewBox="0 0 81 81">
  <circle cx="40.279" cy="40.279" r="40.279" fill="#541211"/>
  <path d="M56.178 51.839c-3.146-1.021-6.617-1.407-7.757-1.534-2.528-.28-3.902-.835-4.273-1.733H42.53c.18 1.05.109 2.52-.893 4.202.744-.284 1.285-.64 1.742-.94.538-.354.963-.634 1.473-.634.086 0 .172.008.258.025 1.294.253 5.265 2.016 5.434 2.09a.35.35 0 01.091.06c.2.18.675.638.935 1.135.702.128 1.352.252 1.926.365.397-.368 1.559-1.046 4.414-.427a.35.35 0 01-.149.684c-1.676-.364-2.665-.239-3.221-.047.794.162 1.303.274 1.388.293a.35.35 0 01.25.21c.856 2.108-.214 3.8-.756 4.472.55.333 1.467.62 2.443.62 1.263 0 3.436-.496 3.794-3.821.224-2.078-1.62-3.767-5.48-5.02zM22.12 60.68h.001c.976 0 1.893-.287 2.443-.62-.541-.672-1.612-2.364-.755-4.473a.349.349 0 01.249-.21c.085-.018.594-.13 1.389-.292-.557-.192-1.546-.317-3.222.047a.35.35 0 01-.149-.684c2.855-.62 4.017.06 4.414.427.574-.113 1.224-.237 1.926-.365.26-.497.734-.954.935-1.135a.35.35 0 01.091-.06c.169-.074 4.14-1.837 5.435-2.09a1.31 1.31 0 01.257-.025c.51 0 .935.28 1.473.633.74.488 1.699 1.118 3.386 1.355a8.25 8.25 0 00.604-.107c1.087-1.471 1.502-2.958 1.235-4.435-.004-.025-.01-.05-.015-.074h-5.98c-.371.898-1.745 1.452-4.273 1.733-1.14.127-4.61.512-7.757 1.534-3.86 1.253-5.704 2.942-5.48 5.02.358 3.324 2.53 3.821 3.794 3.821zm27.046-22.816c-.347 1.096-.95 2.434-1.99 3.592.987 2.716 2.19 5.818 2.739 6.558.708.955 2.287 1.431 3.44 1.778.338.102.658.199.922.296.272.1.548.153.797.153 1.162 0 1.434-1.102 1.459-2.028.017-.686-.142-1.237-.448-1.551-.148-.152-.331-.243-.49-.243-.106 0-.16.032-.16.095 0 1.033-.987 1.425-1.03 1.441a.35.35 0 01-.25 0l-2.106-.805a.35.35 0 01-.194-.183c-.049-.108-1.202-2.68-1.7-5.788-.254-1.594-.605-2.63-.99-3.315zM24.91 50.241h.001c.25 0 .525-.053.797-.153.264-.097.584-.194.923-.296 1.152-.347 2.731-.823 3.44-1.778.547-.74 1.75-3.842 2.738-6.558-1.04-1.158-1.643-2.497-1.99-3.592-.384.686-.735 1.72-.99 3.315-.497 3.108-1.65 5.68-1.7 5.788a.35.35 0 01-.193.183l-2.106.805a.35.35 0 01-.25 0c-.043-.016-1.03-.408-1.03-1.442 0-.062-.054-.094-.16-.094-.159 0-.341.09-.49.243-.306.314-.465.865-.447 1.551.024.925.296 2.028 1.458 2.028zM39.992 36.35c.658 0 1.43-.385 2.073-1.082v-1.593a3.833 3.833 0 01-2.072.617 3.832 3.832 0 01-2.072-.617v1.593c.642.697 1.414 1.082 2.072 1.082zm4.617-8.33c-.083.225-.21.429-.406.563a5.586 5.586 0 01-.126 2.245.393.393 0 00.09.011c.362 0 .81-.543.9-1.353.08-.72-.158-1.287-.458-1.466zm-8.887 1.38c0-.281.021-.555.061-.823a.995.995 0 01-.304-.336 1.455 1.455 0 01-.1-.222c-.301.177-.541.745-.46 1.467.09.81.537 1.353.899 1.353.014 0 .028 0 .042-.002a.356.356 0 00.047-.01 5.548 5.548 0 01-.185-1.428zm4.27 4.192c1.97 0 3.572-1.88 3.572-4.193 0-.224-.015-.443-.044-.658-.376-.026-.801-.19-1.287-.377-.673-.261-1.435-.556-2.24-.556-.806 0-1.568.295-2.24.556-.487.188-.911.35-1.288.377a4.92 4.92 0 00-.044.658c0 2.312 1.602 4.193 3.572 4.193z" fill="#fff"/>
  <path d="M36.087 27.897c.064.112.133.15.274.15.271 0 .692-.163 1.139-.336.693-.268 1.556-.603 2.493-.603.936 0 1.799.335 2.493.603.446.173.867.337 1.138.337.141 0 .436 0 .436-1.189 0-1.894-.795-3.554-1.98-4.465-.425.62-1.201 1.036-2.087 1.036-.886 0-1.663-.416-2.088-1.036-1.185.91-1.98 2.571-1.98 4.465 0 .622.088.907.162 1.038z" fill="#fff"/>
  <path d="M39.992 22.73c.956 0 1.734-.64 1.734-1.426 0-.786-.778-1.426-1.733-1.426-.956 0-1.734.64-1.734 1.426 0 .787.778 1.426 1.733 1.426zm.406 14.286l.706 4.336a.35.35 0 01.002.095l-.722 6.426h3.71c.132-1.114.696-4.808 2.562-6.885 1.675-1.865 2.135-4.318 2.242-5.095l-5.132-2.188c-.592 1.735-1.972 3.085-3.368 3.31z" fill="#fff"/>
  <path d="M33.33 40.988c1.865 2.077 2.43 5.77 2.56 6.885h3.79l.726-6.457-.714-4.385c-1.431-.172-2.866-1.547-3.473-3.326l-5.132 2.188c.108.776.567 3.23 2.242 5.095zm12.126 17.1c4.256 1.197 8.448 1.595 9.31 1.668.364-.397 1.499-1.838.827-3.735-.501-.108-1.974-.418-3.855-.765a.718.718 0 01-.038.143c-.145.376-.558.567-1.228.567-.838 0-2.135-.274-3.963-.838a.427.427 0 00-.152-.02c-.783 0-2.959.753-5.3 1.571 1.467.506 2.996 1.014 4.4 1.409zM35.01 51.912c-1.141.222-4.755 1.81-5.232 2.02a4.783 4.783 0 00-.385.403c2.71-.475 5.939-.95 8.395-1.036-.66-.286-1.158-.613-1.566-.881-.457-.301-.787-.518-1.088-.518a.634.634 0 00-.124.012z" fill="#fff"/>
  <path d="M40.599 56.098c2.699-.944 4.831-1.69 5.757-1.69.145 0 .266.018.367.054 1.732.534 2.994.804 3.75.804.434 0 .564-.094.573-.117.065-.168-.347-.76-.84-1.217-.476-.21-4.09-1.798-5.231-2.02a.644.644 0 00-.124-.012c-.3 0-.631.217-1.088.518-.948.624-2.381 1.567-5.226 1.567-4.475 0-12.802 1.748-14.145 2.036-.665 1.883.471 3.34.828 3.735.866-.073 5.055-.472 9.309-1.668 1.948-.549 4.138-1.314 6.07-1.99z" fill="#fff"/>
</svg>
