<svg fill="none" xmlns="http://www.w3.org/2000/svg" viewBox="0 0 48 48">
  <circle cx="24" cy="24" r="24" fill="#541211"/>
  <path d="M33.473 30.888c-1.874-.609-3.942-.838-4.622-.914-1.506-.167-2.325-.497-2.546-1.033h-.964c.107.626.064 1.501-.532 2.504.443-.17.765-.38 1.038-.56.32-.211.573-.378.877-.378.051 0 .103.005.154.015.77.15 3.137 1.201 3.238 1.246.02.009.038.02.054.035.12.108.402.38.557.676.418.077.806.15 1.148.218.236-.22.928-.623 2.63-.255a.208.208 0 01-.089.408c-.998-.217-1.588-.142-1.92-.028.474.097.777.163.828.174a.208.208 0 01.148.125c.51 1.257-.127 2.265-.45 2.665.328.199.874.37 1.456.37.753 0 2.047-.296 2.26-2.277.134-1.238-.965-2.244-3.265-2.991zM13.18 36.156c.582 0 1.128-.172 1.457-.37-.323-.4-.96-1.408-.45-2.665a.208.208 0 01.148-.125c.05-.01.354-.077.827-.174-.331-.114-.92-.189-1.92.028a.209.209 0 01-.088-.407c1.701-.37 2.393.035 2.63.254.342-.067.73-.142 1.147-.218.155-.296.438-.568.557-.676a.212.212 0 01.055-.035c.1-.045 2.467-1.095 3.238-1.246a.801.801 0 01.154-.015c.303 0 .557.167.877.378.441.29 1.012.665 2.017.807a5.33 5.33 0 00.36-.064c.648-.877.896-1.763.736-2.642l-.008-.045h-3.564c-.22.535-1.04.866-2.545 1.033-.68.075-2.748.305-4.623.914-2.3.747-3.398 1.753-3.265 2.99.213 1.982 1.508 2.278 2.26 2.278zm16.115-13.595c-.207.653-.566 1.45-1.185 2.14.588 1.619 1.305 3.467 1.632 3.908.421.569 1.362.852 2.05 1.06.2.06.391.118.549.176a1.4 1.4 0 00.475.091c.692 0 .854-.657.869-1.208.01-.41-.085-.737-.267-.925a.435.435 0 00-.292-.145c-.063 0-.095.02-.095.057 0 .616-.588.85-.614.859a.209.209 0 01-.149 0l-1.255-.48a.208.208 0 01-.115-.109 15.062 15.062 0 01-1.013-3.449c-.152-.95-.361-1.566-.59-1.975zm-14.452 7.375c.149 0 .313-.032.475-.091.157-.058.348-.116.55-.176.687-.207 1.627-.491 2.05-1.06.326-.44 1.043-2.29 1.631-3.908-.62-.69-.979-1.487-1.186-2.14-.228.409-.437 1.025-.59 1.975a15.061 15.061 0 01-1.012 3.45.208.208 0 01-.115.108l-1.255.48a.209.209 0 01-.15 0c-.025-.01-.613-.243-.613-.86 0-.037-.032-.056-.095-.056a.435.435 0 00-.292.145c-.183.188-.278.516-.267.924.014.552.177 1.209.87 1.209zm8.987-8.277c.391 0 .851-.23 1.234-.645v-.949a2.284 2.284 0 01-1.235.367 2.28 2.28 0 01-1.234-.367v.95c.383.415.843.644 1.234.644zm2.75-4.964a.671.671 0 01-.242.336 3.323 3.323 0 01-.075 1.338.224.224 0 00.054.006c.215 0 .482-.324.536-.806.048-.43-.094-.767-.273-.873zm-5.295.822c0-.167.013-.33.036-.49a.595.595 0 01-.181-.2.872.872 0 01-.06-.132c-.18.106-.322.444-.274.874.054.482.32.806.536.806l.025-.001c.01-.001.019-.004.028-.006a3.305 3.305 0 01-.11-.85zm2.545 2.499c1.173 0 2.127-1.121 2.127-2.499 0-.133-.009-.264-.026-.392-.224-.015-.477-.113-.767-.225-.4-.155-.855-.331-1.335-.331s-.934.176-1.335.331c-.289.113-.542.21-.766.226a2.934 2.934 0 00-.027.391c0 1.378.955 2.499 2.128 2.499z" fill="#fff"/>
  <path d="M21.502 16.622c.039.067.08.09.164.09.161 0 .412-.097.678-.2.413-.16.928-.36 1.485-.36.558 0 1.072.2 1.486.36.266.103.517.2.678.2.084 0 .26 0 .26-.708 0-1.129-.474-2.118-1.18-2.66-.253.369-.716.617-1.244.617-.527 0-.99-.248-1.244-.618-.705.543-1.179 1.532-1.179 2.66 0 .371.052.541.096.62z" fill="#fff"/>
  <path d="M23.83 13.544c.569 0 1.032-.382 1.032-.85 0-.469-.463-.85-1.033-.85-.57 0-1.032.381-1.032.85s.463.85 1.032.85zm.241 8.511l.42 2.584a.207.207 0 01.002.057l-.43 3.829h2.21c.079-.664.415-2.865 1.527-4.102.998-1.112 1.272-2.574 1.335-3.036l-3.057-1.304c-.353 1.034-1.175 1.838-2.007 1.973z" fill="#fff"/>
  <path d="M19.859 24.422c1.112 1.238 1.448 3.439 1.526 4.103h2.258l.433-3.847-.426-2.613c-.852-.103-1.707-.922-2.07-1.982l-3.057 1.304c.064.462.338 1.924 1.336 3.035zm7.226 10.189c2.536.714 5.033.951 5.547.994.217-.236.893-1.095.493-2.225a84.254 84.254 0 00-2.297-.456.428.428 0 01-.023.085c-.086.224-.332.338-.732.338-.499 0-1.271-.163-2.361-.5a.165.165 0 01-.012-.003s-.022-.008-.079-.008c-.466 0-1.762.448-3.158.936.875.301 1.785.604 2.622.84zm-6.225-3.68c-.68.133-2.833 1.079-3.117 1.204a3.04 3.04 0 00-.23.24c1.616-.283 3.54-.566 5.003-.617a5.86 5.86 0 01-.933-.525c-.272-.18-.47-.309-.648-.309a.376.376 0 00-.074.007z" fill="#fff"/>
  <path d="M24.19 33.426c1.609-.563 2.88-1.007 3.431-1.007a.65.65 0 01.219.032c1.032.318 1.783.48 2.233.48.26 0 .337-.057.343-.071.038-.1-.207-.453-.5-.725-.285-.125-2.438-1.071-3.118-1.204a.385.385 0 00-.074-.007c-.179 0-.376.13-.648.309-.565.372-1.419.933-3.114.933-2.666 0-7.628 1.042-8.428 1.214-.396 1.121.28 1.99.493 2.225.516-.043 3.012-.28 5.547-.994 1.16-.326 2.465-.783 3.617-1.185z" fill="#fff"/>
</svg>
