<svg fill="none" xmlns="http://www.w3.org/2000/svg" viewBox="0 0 81 81">
  <circle cx="40.279" cy="40.279" r="40.279" fill="#541211"/>
  <path d="M27.005 50.574c.62.283 1.201.679 1.71 1.189.51.509.905 1.089 1.188 1.708l3.073-2.676a24.848 24.848 0 01-2.708-3.991l-3.263 3.77zm-2.445.745a4.588 4.588 0 00-3.254 1.345 4.607 4.607 0 000 6.509 4.607 4.607 0 006.508 0 4.607 4.607 0 000-6.509 4.588 4.588 0 00-3.254-1.345zm2.06 6.66a2.904 2.904 0 01-2.06.851 2.904 2.904 0 01-2.06-.851 2.917 2.917 0 010-4.12 2.917 2.917 0 014.12 0 2.916 2.916 0 010 4.12zm26.462-31.484l6.617-6.617h-7.33l-5.67 6.856c1.752.165 3.855.081 6.383-.24zM40.278 48.892c1.78-1.456 3.258-3.281 4.405-5.435h-8.818c1.147 2.152 2.627 3.977 4.413 5.435zM33.86 26.734l-5.67-6.856h-7.33l6.616 6.616c2.528.321 4.632.406 6.384.24zm1.384 15.448h10.061a23.715 23.715 0 001.349-3.965H33.898a23.67 23.67 0 001.346 3.965zM26.542 31.03v-3.666l-6.584-6.584v7.336l6.686 5.721a38.892 38.892 0 01-.102-2.807z" fill="#fff"/>
  <path d="M23.401 54.76a1.64 1.64 0 000 2.317 1.64 1.64 0 002.317 0 1.64 1.64 0 000-2.317 1.64 1.64 0 00-2.317 0zm9.735-21.455a29.67 29.67 0 00.48 3.637h13.32c.233-1.174.396-2.39.485-3.637-2.766-.115-5.112-.64-7.142-1.596-2.03.957-4.377 1.481-7.143 1.596zm20.417 17.269l-3.268-3.778a24.91 24.91 0 01-2.707 3.996l3.077 2.68a5.85 5.85 0 012.898-2.898zm2.445 3.707a1.64 1.64 0 00-1.158 2.796 1.64 1.64 0 002.317 0 1.64 1.64 0 000-2.317 1.633 1.633 0 00-1.159-.479z" fill="#fff"/>
  <path d="M55.998 51.319a4.588 4.588 0 00-3.254 1.345 4.607 4.607 0 000 6.509 4.607 4.607 0 006.508 0 4.607 4.607 0 000-6.509 4.588 4.588 0 00-3.254-1.345zm2.06 6.66a2.904 2.904 0 01-2.06.851 2.904 2.904 0 01-2.06-.851 2.917 2.917 0 010-4.12 2.917 2.917 0 014.12 0 2.917 2.917 0 010 4.12zm-4.042-30.615v3.642c0 .956-.035 1.9-.103 2.834l6.687-5.724V20.78l-6.584 6.584zm-1.509 7.862c.154-1.365.234-2.773.234-4.22v-3.184c-6.227.727-10.036-.002-12.462-2.404-1.831 1.813-4.45 2.673-8.301 2.673-1.252 0-2.633-.09-4.16-.27v3.209a37.455 37.455 0 00.24 4.271c1.03 8.976 5.353 16.082 12.221 19.892 6.859-3.805 11.18-10.905 12.218-19.876a.642.642 0 01.01-.091zm-4.416 2.438a.65.65 0 01-.023.106c-.414 1.891-1.005 3.67-1.759 5.282a.626.626 0 01-.038.08c-.048.102-.095.206-.145.307-1.35 2.744-3.186 5.023-5.46 6.772a.637.637 0 01-.776 0c-2.275-1.748-4.112-4.02-5.46-6.756-.053-.108-.103-.219-.155-.328a.628.628 0 01-.032-.068c-.757-1.62-1.35-3.407-1.764-5.31a31.008 31.008 0 01-.656-5.03.638.638 0 01.626-.67c2.997-.052 5.465-.582 7.546-1.619.179-.09.39-.09.569 0 2.08 1.037 4.547 1.567 7.544 1.62a.638.638 0 01.626.67 31.03 31.03 0 01-.643 4.944z" fill="#fff"/>
</svg>
