<svg fill="none" xmlns="http://www.w3.org/2000/svg" viewBox="0 0 46 46">
  <circle cx="22.829" cy="22.829" r="22.829" fill="#fff"/>
  <path d="M34.19 22.383c0-.01 0-.019-.002-.028a11.371 11.371 0 00-3.42-7.765 11.374 11.374 0 00-8.011-3.274c-3.056 0-5.929 1.19-8.09 3.351a11.365 11.365 0 00-3.35 8.09 2.827 2.827 0 002.824 2.823 2.827 2.827 0 002.824-2.824c0-4.38 3.564-7.945 7.945-7.945 4.345 0 7.833 3.4 7.943 7.74v.006c.002.066.003.133.003.2 0 5.568-4.53 10.099-10.1 10.099a.67.67 0 100 1.34c3.056 0 5.93-1.19 8.09-3.35a11.365 11.365 0 003.345-8.463z" fill="#541211"/>
</svg>
