<svg fill="none" xmlns="http://www.w3.org/2000/svg" viewBox="0 0 48 48">
  <circle cx="24" cy="24" r="24" fill="#541211"/>
  <path d="M13.101 20.227a1.8 1.8 0 00.92-.252 13.615 13.615 0 00-.093 6.963l.443 1.774.814-.203-.444-1.774a12.816 12.816 0 01.262-7.112l.451.301c.298.199.644.303 1 .303.694 0 1.258-.564 1.258-1.257s-.564-1.258-1.257-1.258a1.8 1.8 0 00-.493.07 13.402 13.402 0 001.26-3.784l-.825-.145a12.562 12.562 0 01-1.74 4.533l-.555-.37a1.797 1.797 0 00-1-.303c-.694 0-1.258.564-1.258 1.257s.564 1.257 1.258 1.257zm3.773-1.257a.42.42 0 01-.42.42.962.962 0 01-.535-.163l-.385-.257.385-.257a.962.962 0 01.536-.162.42.42 0 01.419.419zm-3.772-.42c.19 0 .376.057.535.163l.386.257-.386.257a.963.963 0 01-.536.162.42.42 0 010-.838zM32.64 30.921c-.14-.116-.279-.234-.418-.351a5.185 5.185 0 00-2.457 2.709l.52.427a6.033 6.033 0 012.356-2.785zM20.762 32.9c.172.137.351.269.536.392l-.465.698a8.22 8.22 0 01-3.422-4.857l-.105-.42.813-.204.105.421c.057.229.125.453.203.673.391-.252.778-.51 1.162-.772-.726-.685-1.478-1.085-2.012-1.057a.61.61 0 00-.48.236c-.527.676-.117 2.709 1.311 4.545.909 1.169 1.986 1.924 2.743 1.924.233 0 .407-.077.53-.237.285-.366.292-1.118.036-1.993-.316.22-.634.437-.954.65z" fill="#fff"/>
  <path d="M13.885 16.852l.15.194c.117.044.23.095.34.155.579-1.091.98-2.262 1.196-3.492l.093-.53-.555-.682a1.76 1.76 0 00-1.372-.653h-.126a1.77 1.77 0 00-1.397 2.85l1.671 2.158zm4.665 2.118a2.1 2.1 0 01-1.343 1.956 104.92 104.92 0 005.304 5.733 48.178 48.178 0 002.804-2.44 105.642 105.642 0 01-7.053-7.841l-.57-.702c-.133.457-.287.906-.464 1.347a2.099 2.099 0 011.323 1.947zm-1.807 12.501a48.096 48.096 0 01-4.157 2.11c-.45.201-.742.65-.742 1.144v.177a1.255 1.255 0 001.85 1.103l2.742-1.483c.575-.31 1.149-.636 1.713-.97a9.373 9.373 0 01-1.406-2.08zm14.794-1.481a105.695 105.695 0 01-3.413-3.05 50.481 50.481 0 01-2.74 2.49 104.82 104.82 0 003.709 3.285 6.031 6.031 0 012.444-2.726zm2.23 1.854c-.146-.118-.293-.236-.439-.356a5.186 5.186 0 00-2.36 2.774c.173.14.347.278.52.416a6.033 6.033 0 012.28-2.834zm-.325 4.258c.116.035.237.054.36.054a1.937 1.937 0 001.934-1.935v-.194c0-.155-.028-.305-.081-.446a4.543 4.543 0 00-2.213 2.52z" fill="#fff"/>
  <path d="M35.404 12.524l-.851 1.454a48.739 48.739 0 01-7.091 9.313 48.739 48.739 0 01-8.706 7.096 7.37 7.37 0 001.365 1.931 49.832 49.832 0 0015.621-16.521l.056-.096a2.65 2.65 0 00-.394-3.177zm-.294 20.398l-.652-.522a5.188 5.188 0 00-2.276 2.825l.535.42a5.392 5.392 0 012.393-2.723z" fill="#fff"/>
</svg>
