<svg fill="none" xmlns="http://www.w3.org/2000/svg" viewBox="0 0 81 81">
  <circle cx="40.279" cy="40.279" r="40.279" fill="#541211"/>
  <path d="M21.988 33.948c.546 0 1.076-.147 1.542-.424a22.843 22.843 0 00-.155 11.686l.745 2.978 1.365-.341-.745-2.979a21.501 21.501 0 01.44-11.934l.757.505c.5.333 1.08.509 1.68.509 1.163 0 2.11-.947 2.11-2.11a2.113 2.113 0 00-2.11-2.111c-.283 0-.561.04-.828.116a22.498 22.498 0 002.116-6.35l-1.386-.243a21.084 21.084 0 01-2.92 7.607l-.931-.622a3.017 3.017 0 00-1.68-.508c-1.163 0-2.11.947-2.11 2.11 0 1.164.947 2.11 2.11 2.11zm6.332-2.11a.704.704 0 01-.704.703c-.32 0-.631-.094-.898-.272l-.647-.432.647-.431c.267-.178.577-.272.898-.272.388 0 .704.315.704.703zm-6.332-.704c.321 0 .632.094.9.272l.646.431-.647.432a1.616 1.616 0 01-.899.272.704.704 0 010-1.407zm32.793 20.761l-.703-.59a8.701 8.701 0 00-4.123 4.546c.29.24.58.48.872.718a10.124 10.124 0 013.954-4.674zm-19.935 3.319c.288.232.588.453.899.66l-.78 1.17a13.796 13.796 0 01-5.744-8.15l-.177-.706 1.365-.341.177.706c.096.384.21.76.34 1.13a79.861 79.861 0 001.95-1.296c-1.218-1.15-2.48-1.822-3.377-1.774-.35.017-.613.147-.806.396-.883 1.134-.196 4.546 2.201 7.629 1.526 1.96 3.333 3.228 4.604 3.228.391 0 .683-.13.891-.398.477-.614.489-1.876.059-3.345-.53.37-1.064.734-1.602 1.091z" fill="#fff"/>
  <path d="M23.303 28.283l.253.325c.195.074.385.16.569.261a19.693 19.693 0 002.008-5.862l.155-.888-.93-1.145a2.955 2.955 0 00-2.302-1.096h-.212a2.97 2.97 0 00-2.966 2.966c0 .654.22 1.3.62 1.816l2.805 3.623zm7.831 3.554a3.523 3.523 0 01-2.256 3.283 176.17 176.17 0 008.903 9.62 80.717 80.717 0 004.706-4.093 177.307 177.307 0 01-11.838-13.16l-.956-1.178a23.845 23.845 0 01-.78 2.26 3.522 3.522 0 012.22 3.268zM28.1 52.818a80.744 80.744 0 01-6.977 3.54 2.106 2.106 0 00-1.245 1.92v.298a2.106 2.106 0 003.104 1.851l4.603-2.488a83.477 83.477 0 002.874-1.63 15.722 15.722 0 01-2.36-3.492zm24.829-2.487a177.165 177.165 0 01-5.729-5.118 84.731 84.731 0 01-4.6 4.18 175.831 175.831 0 006.227 5.513 10.12 10.12 0 014.102-4.575zm3.742 3.113c-.245-.199-.492-.397-.736-.597a8.703 8.703 0 00-3.961 4.654c.29.234.582.468.873.7a10.126 10.126 0 013.824-4.757zm-.546 7.146c.196.058.399.09.604.09a3.251 3.251 0 003.248-3.248v-.324c0-.26-.048-.513-.137-.749a7.625 7.625 0 00-3.715 4.23z" fill="#fff"/>
  <path d="M59.42 21.02l-1.43 2.438a81.796 81.796 0 01-11.9 15.631 81.805 81.805 0 01-14.612 11.91 12.373 12.373 0 002.29 3.24 83.633 83.633 0 0026.218-27.727l.093-.161a4.447 4.447 0 00-.66-5.331zm-.495 34.232l-1.095-.875a8.707 8.707 0 00-3.818 4.742l.898.705a9.048 9.048 0 014.015-4.572z" fill="#fff"/>
</svg>
