<svg fill="none" xmlns="http://www.w3.org/2000/svg" viewBox="0 0 48 48">
  <circle cx="24" cy="24" r="24" fill="#541211"/>
  <path d="M16.09 30.134a3.486 3.486 0 011.727 1.726l1.83-1.594a14.806 14.806 0 01-1.613-2.378l-1.944 2.246zm-1.457.444c-.702 0-1.404.267-1.939.802a2.745 2.745 0 000 3.878 2.745 2.745 0 003.878 0 2.745 2.745 0 000-3.878 2.734 2.734 0 00-1.939-.802zm1.228 3.968a1.73 1.73 0 01-1.228.508 1.73 1.73 0 01-1.227-.508 1.738 1.738 0 010-2.455 1.738 1.738 0 012.454 0 1.738 1.738 0 010 2.455zm15.767-18.759l3.942-3.943h-4.367l-3.379 4.085c1.044.099 2.298.048 3.804-.142zm-7.63 13.345c1.061-.868 1.942-1.955 2.625-3.239H21.37A10.525 10.525 0 0024 29.132zM20.174 15.93l-3.378-4.086h-4.368l3.943 3.943c1.506.19 2.76.241 3.803.142zm.825 9.204h5.995c.327-.734.596-1.526.804-2.363h-7.6c.206.837.474 1.63.801 2.363zm-5.185-6.645v-2.184l-3.923-3.924v4.372l3.984 3.409c-.04-.551-.06-1.11-.06-1.673z" fill="#fff"/>
  <path d="M13.943 32.629c-.38.38-.38 1 0 1.38a.977.977 0 001.38-1.38.976.976 0 00-1.38 0zm5.8-12.784c.052.743.149 1.467.286 2.167h7.937c.138-.7.236-1.425.288-2.167-1.648-.069-3.045-.381-4.255-.951-1.21.57-2.608.882-4.256.95zm12.166 10.289l-1.948-2.25a14.843 14.843 0 01-1.613 2.38l1.834 1.596a3.486 3.486 0 011.727-1.726zm1.456 2.209a.977.977 0 10.69 1.666.977.977 0 00-.69-1.666z" fill="#fff"/>
  <path d="M33.365 30.578c-.702 0-1.404.267-1.939.802a2.745 2.745 0 000 3.878 2.745 2.745 0 003.878 0 2.745 2.745 0 000-3.878 2.734 2.734 0 00-1.939-.802zm1.228 3.968a1.73 1.73 0 01-1.228.508 1.738 1.738 0 01-1.227-2.962 1.738 1.738 0 012.455 0 1.738 1.738 0 010 2.454zm-2.409-18.241v2.17c0 .569-.02 1.132-.061 1.688l3.985-3.41v-4.372l-3.924 3.924zm-.899 4.685c.092-.814.14-1.653.14-2.515v-1.898c-3.71.434-5.98 0-7.426-1.432-1.09 1.08-2.651 1.593-4.946 1.593-.746 0-1.569-.054-2.479-.16v1.91a22.33 22.33 0 00.143 2.546c.615 5.348 3.19 9.582 7.282 11.852 4.087-2.267 6.662-6.497 7.28-11.842 0-.019.003-.037.006-.055zm-2.631 1.452A15.037 15.037 0 0127.57 25.7c-.03.06-.057.123-.087.183-.804 1.635-1.898 2.993-3.253 4.035a.38.38 0 01-.463 0c-1.355-1.042-2.45-2.396-3.253-4.026l-.092-.195a14.997 14.997 0 01-1.08-3.25 18.466 18.466 0 01-.38-2.952.38.38 0 01.372-.398c1.786-.032 3.256-.348 4.496-.965a.38.38 0 01.339 0c1.24.617 2.71.933 4.495.965a.38.38 0 01.373.399 18.488 18.488 0 01-.383 2.946z" fill="#fff"/>
</svg>
