<svg fill="none" xmlns="http://www.w3.org/2000/svg" viewBox="0 0 74 74">
  <path d="M73.595 36.797c0 20.323-16.475 36.798-36.798 36.798C16.475 73.595 0 57.12 0 36.797 0 16.475 16.475 0 36.797 0 57.12 0 73.595 16.475 73.595 36.797z" fill="#fff"/>
  <path d="M48.42 43.486c-.598-.522-1.332-1.015-2.192-1.476-1.734.98-3.968 1.476-6.674 1.476-3.25 0-6.96-.714-9.922-1.909a17.19 17.19 0 01-2.504-1.238c-3.18 1.664-3.793 4.585-3.793 6.585 0 2.94 1.323 7.872 10.183 7.872 5.955 0 9.965-.563 12.622-1.773 1.41-.642 2.43-1.461 3.12-2.503.664-1 1-2.21 1-3.596 0-1.213-.62-2.37-1.84-3.438z" fill="#541211"/>
  <path d="M30.4 39.672c2.732 1.102 6.153 1.76 9.154 1.76 7.589 0 8.722-4.248 8.722-6.78 0-1.721-.525-4.235-3.244-5.669-.713.561-1.639 1.1-2.836 1.582-2.194.886-4.94 1.414-7.345 1.414-2.473 0-4.463-.562-5.927-1.671-.79.413-1.46.858-2.002 1.331-1.064.93-1.603 1.944-1.603 3.013s.54 2.082 1.603 3.012c.851.745 2.022 1.42 3.479 2.008z" fill="#541211"/>
  <path d="M29.933 28.485c1.103.956 2.758 1.44 4.918 1.44 2.155 0 4.614-.472 6.577-1.264 2.471-.998 3.778-2.32 3.778-3.826 0-1.505-1.307-2.828-3.778-3.825-1.963-.792-4.422-1.265-6.577-1.265-2.16 0-3.815.485-4.918 1.44-1.01.875-1.544 2.137-1.544 3.65s.534 2.775 1.544 3.65z" fill="#541211"/>
</svg>
