<svg fill="none" xmlns="http://www.w3.org/2000/svg" viewBox="0 0 46 46">
  <path d="M46 23c0 12.703-10.297 23-23 23S0 35.703 0 23 10.297 0 23 0s23 10.297 23 23z" fill="#fff"/>
  <path d="M30.264 27.18a7.36 7.36 0 00-1.37-.922c-1.083.613-2.48.923-4.171.923-2.032 0-4.35-.446-6.201-1.194a10.746 10.746 0 01-1.566-.773c-1.987 1.04-2.37 2.866-2.37 4.116 0 1.837.826 4.92 6.364 4.92 3.722 0 6.23-.352 7.89-1.108.88-.402 1.519-.914 1.95-1.565.415-.625.625-1.382.625-2.247 0-.759-.387-1.482-1.15-2.15z" fill="#541211"/>
  <path d="M19.002 24.797c1.707.689 3.846 1.1 5.72 1.1 4.744 0 5.452-2.655 5.452-4.238 0-1.076-.327-2.647-2.027-3.543-.445.35-1.024.687-1.772.989-1.372.553-3.088.883-4.592.883-1.546 0-2.79-.351-3.704-1.044a6.397 6.397 0 00-1.252.832c-.665.581-1.002 1.215-1.002 1.883 0 .668.338 1.302 1.002 1.883.533.465 1.264.888 2.175 1.255z" fill="#541211"/>
  <path d="M18.71 17.804c.69.598 1.723.9 3.073.9 1.348 0 2.884-.295 4.111-.79 1.545-.623 2.362-1.45 2.362-2.39 0-.942-.817-1.769-2.362-2.392-1.227-.495-2.763-.79-4.11-.79-1.35 0-2.385.303-3.075.9-.63.546-.965 1.335-.965 2.281 0 .946.334 1.735.965 2.281z" fill="#541211"/>
</svg>
