<svg fill="none" xmlns="http://www.w3.org/2000/svg" viewBox="0 0 35 35">
  <path d="M34.5 17.25c0 9.527-7.723 17.25-17.25 17.25C7.723 34.5 0 26.777 0 17.25 0 7.723 7.723 0 17.25 0 26.777 0 34.5 7.723 34.5 17.25z" fill="#C33C2F"/>
  <path d="M11.203 25.743v-2.192c1.005-.833 1.98-1.659 2.923-2.476a29.354 29.354 0 002.546-2.428c.755-.802 1.352-1.58 1.792-2.335.456-.77.684-1.517.684-2.24 0-.675-.189-1.273-.566-1.791-.361-.52-.966-.779-1.815-.779-.865 0-1.517.283-1.957.85-.44.565-.66 1.249-.66 2.05h-2.924c.031-1.21.299-2.216.802-3.017a4.646 4.646 0 012.004-1.816c.833-.409 1.768-.613 2.805-.613 1.682 0 2.987.464 3.914 1.391.944.912 1.415 2.099 1.415 3.56 0 .912-.212 1.8-.637 2.665a11.52 11.52 0 01-1.626 2.499 22.906 22.906 0 01-2.193 2.263 71.92 71.92 0 01-2.287 1.934h7.144v2.475H11.203z" fill="#fff"/>
</svg>
