<svg fill="none" xmlns="http://www.w3.org/2000/svg" viewBox="0 0 35 35">
  <path d="M35 17.5C35 27.165 27.165 35 17.5 35S0 27.165 0 17.5 7.835 0 17.5 0 35 7.835 35 17.5z" fill="#C33C2F"/>
  <path d="M17.249 26.404c-1.1 0-2.097-.192-2.99-.575a4.975 4.975 0 01-2.153-1.817c-.542-.814-.829-1.834-.86-3.062h3.013c.016.813.28 1.499.79 2.057.526.542 1.26.813 2.2.813.893 0 1.579-.247 2.057-.741.479-.495.718-1.117.718-1.866 0-.877-.32-1.539-.957-1.985-.622-.463-1.427-.694-2.416-.694h-1.244v-2.511h1.268c.813 0 1.49-.192 2.033-.575.542-.382.813-.948.813-1.698 0-.622-.207-1.116-.622-1.483-.398-.383-.956-.574-1.674-.574-.781 0-1.395.231-1.842.694-.43.462-.67 1.028-.717 1.698h-2.99c.064-1.547.598-2.767 1.602-3.66 1.02-.893 2.336-1.34 3.947-1.34 1.148 0 2.113.208 2.894.623.798.398 1.396.933 1.794 1.602.415.67.622 1.412.622 2.225 0 .94-.263 1.738-.79 2.392a3.744 3.744 0 01-1.913 1.291c.941.192 1.707.654 2.297 1.388.59.717.885 1.626.885 2.727a4.94 4.94 0 01-.67 2.535c-.447.766-1.1 1.38-1.962 1.842-.845.462-1.89.694-3.133.694z" fill="#fff"/>
</svg>
