<svg fill="none" xmlns="http://www.w3.org/2000/svg" viewBox="0 0 35 35">
  <path d="M34.5 17.25c0 9.527-7.723 17.25-17.25 17.25C7.723 34.5 0 26.777 0 17.25 0 7.723 7.723 0 17.25 0 26.777 0 34.5 7.723 34.5 17.25z" fill="#C33C2F"/>
  <path d="M17.003 26.026c-1.085 0-2.067-.188-2.948-.566a4.903 4.903 0 01-2.122-1.791c-.534-.802-.817-1.808-.848-3.018h2.97c.016.801.275 1.477.778 2.027.52.535 1.242.802 2.17.802.88 0 1.556-.244 2.027-.731.472-.487.708-1.1.708-1.839 0-.864-.315-1.517-.944-1.957-.613-.456-1.406-.684-2.38-.684h-1.227v-2.475h1.25c.801 0 1.47-.189 2.004-.566.534-.377.802-.935.802-1.674 0-.613-.205-1.1-.614-1.462-.393-.377-.943-.566-1.65-.566-.77 0-1.375.228-1.815.684-.425.456-.66 1.014-.708 1.674H11.51c.063-1.525.59-2.727 1.58-3.608 1.006-.88 2.302-1.32 3.89-1.32 1.132 0 2.083.204 2.853.613.786.393 1.375.92 1.768 1.58.409.66.613 1.39.613 2.193 0 .927-.26 1.713-.778 2.357a3.69 3.69 0 01-1.886 1.274 3.783 3.783 0 012.263 1.367c.582.707.873 1.603.873 2.688a4.87 4.87 0 01-.66 2.5c-.44.754-1.085 1.359-1.934 1.815-.833.455-1.862.683-3.088.683z" fill="#fff"/>
</svg>
