<svg fill="none" xmlns="http://www.w3.org/2000/svg" viewBox="0 0 35 35">
  <path d="M35 17.5C35 27.165 27.165 35 17.5 35S0 27.165 0 17.5 7.835 0 17.5 0 35 7.835 35 17.5z" fill="#C33C2F"/>
  <path d="M11.365 26.116v-2.224a172.73 172.73 0 002.966-2.511 29.835 29.835 0 002.583-2.464c.765-.814 1.371-1.603 1.818-2.368.462-.782.694-1.54.694-2.273a3.01 3.01 0 00-.574-1.817c-.367-.527-.981-.79-1.842-.79-.877 0-1.539.287-1.986.861-.446.574-.67 1.268-.67 2.081H11.39c.032-1.228.303-2.248.813-3.061.51-.83 1.188-1.444 2.033-1.842.845-.415 1.794-.622 2.847-.622 1.706 0 3.03.47 3.97 1.411.957.925 1.435 2.129 1.435 3.612 0 .925-.215 1.826-.645 2.703a11.687 11.687 0 01-1.65 2.535 23.246 23.246 0 01-2.225 2.297 72.963 72.963 0 01-2.32 1.961h7.247v2.511h-11.53z" fill="#fff"/>
</svg>
